<svg width="169" height="133" viewBox="0 0 169 133" fill="none" xmlns="http://www.w3.org/2000/svg">
<path d="M0 66.3348V99.5021C0 104.089 3.76466 107.794 8.42442 107.794H16.8488V58.0429H8.42442C3.76466 58.0429 0 61.7483 0 66.3348ZM122.154 24.8755H92.6686V8.29185C92.6686 3.70542 88.9039 0 84.2442 0C79.5844 0 75.8198 3.70542 75.8198 8.29185V24.8755H46.3343C34.6981 24.8755 25.2733 34.152 25.2733 45.6051V116.086C25.2733 125.233 32.8289 132.67 42.1221 132.67H126.366C135.659 132.67 143.215 125.233 143.215 116.086V45.6051C143.215 34.152 133.79 24.8755 122.154 24.8755ZM67.3953 107.794H50.5465V99.5021H67.3953V107.794ZM58.9709 76.6996C53.1528 76.6996 48.4404 72.0613 48.4404 66.3348C48.4404 60.6082 53.1528 55.97 58.9709 55.97C64.789 55.97 69.5014 60.6082 69.5014 66.3348C69.5014 72.0613 64.789 76.6996 58.9709 76.6996ZM92.6686 107.794H75.8198V99.5021H92.6686V107.794ZM117.942 107.794H101.093V99.5021H117.942V107.794ZM109.517 76.6996C103.699 76.6996 98.9869 72.0613 98.9869 66.3348C98.9869 60.6082 103.699 55.97 109.517 55.97C115.336 55.97 120.048 60.6082 120.048 66.3348C120.048 72.0613 115.336 76.6996 109.517 76.6996ZM160.064 58.0429H151.64V107.794H160.064C164.724 107.794 168.488 104.089 168.488 99.5021V66.3348C168.488 61.7483 164.724 58.0429 160.064 58.0429Z" fill="white"/>
</svg>
